<svg xmlns="http://www.w3.org/2000/svg" xmlns:xlink="http://www.w3.org/1999/xlink" viewBox="0 0 1024 1024"><defs><style>.cls-1{fill:#eaf6f6;}.cls-2{fill:#fcfefe;}</style></defs><title>HarHar Icon</title><g id="Background"><image width="1024" height="1024" xlink:href="App%20Store%E3%81%AE%E3%82%B3%E3%83%92%E3%82%9A%E3%83%BC.png"/></g><g id="レイヤー_3" data-name="レイヤー 3"><path class="cls-1" d="M639,230H559a30,30,0,0,0-30,30V520a30,30,0,0,1-30,30H434A125,125,0,0,0,309,675v95a30,30,0,0,0,30,30h95A125,125,0,0,0,559,675V360a30,30,0,0,1,30-30h90a30,30,0,0,0,30-30h0A70,70,0,0,0,639,230Z"/><path class="cls-1" d="M532,376A156,156,0,1,0,688,532,156,156,0,0,0,532,376Zm0,282A126,126,0,1,1,658,532,126,126,0,0,1,532,658Z"/><path class="cls-2" d="M619,210H539a30,30,0,0,0-30,30V500a30,30,0,0,1-30,30H414A125,125,0,0,0,289,655v95a30,30,0,0,0,30,30h95A125,125,0,0,0,539,655V340a30,30,0,0,1,30-30h90a30,30,0,0,0,30-30h0A70,70,0,0,0,619,210Z"/><path class="cls-2" d="M512,356A156,156,0,1,0,668,512,156,156,0,0,0,512,356Zm0,282A126,126,0,1,1,638,512,126,126,0,0,1,512,638Z"/></g></svg>