<svg xmlns="http://www.w3.org/2000/svg" viewBox="0 0 312 304.63"><defs><style>.cls-1{fill:#f76b8a;}</style></defs><title>Icon_min</title><g id="レイヤー_3" data-name="レイヤー 3"><path class="cls-1" d="M509,404.14V516.59a15,15,0,0,1-15,15H413.73a20.62,20.62,0,0,0-19,28.25A126,126,0,0,0,512,639.59h.28A27,27,0,0,0,539,612.54V404.14a15,15,0,0,0-13.57-14.93h0A15,15,0,0,0,509,404.14Z" transform="translate(-356 -358.7)"/><path class="cls-1" d="M539,648.62a14.72,14.72,0,0,0,19.07,14A156,156,0,0,0,558,364.49a14.65,14.65,0,0,0-19,14v.77a14.72,14.72,0,0,0,10.44,14,126,126,0,0,1,0,240.67A14.71,14.71,0,0,0,539,648Z" transform="translate(-356 -358.7)"/><path class="cls-1" d="M386,513.59a126,126,0,0,1,110.12-125A14.69,14.69,0,0,0,509,374v-.65a14.7,14.7,0,0,0-16.56-14.56A156,156,0,0,0,356,513.59q0,5.6.39,11.1a14.73,14.73,0,0,0,19.29,12.9l.29-.1a14.66,14.66,0,0,0,10.35-14.9Q386,518.14,386,513.59Z" transform="translate(-356 -358.7)"/></g></svg>